{"title":"Up.2009.iTALiAN.LD.BDRip.XvlD-SiLENT[survivalofmisa]","uid":5133890,"size":712647746,"categoryP":"video","categoryS":"movies","magnet":"?xt=urn:btih:804c784c02a67bdd552688d7480d3f4409e6c4f6&amp;dn=Up.2009.iTALiAN.LD.BDRip.XvlD-SiLENT%5Bsurvivalofmisa%5D&amp;tr=udp%3A%2F%2Ftracker.openbittorrent.com%3A80&amp;tr=udp%3A%2F%2Fopen.demonii.com%3A1337&amp;tr=udp%3A%2F%2Ftracker.coppersurfer.tk%3A6969&amp;tr=udp%3A%2F%2Fexodus.desync.com%3A6969","seeders":3,"leechers":0,"uploader":"misafor","files":1,"time":1256335494,"description":"General\nComplete name                    : Up.2009.iTALiAN.LD.BDRip.XvlD-SiLENT[survivalofmisa].avi\nFormat                           : AVI\nFormat/Info                      : Audio Video Interleave\nFile size                        : 680 MiB\nDuration                         : 1h 36mn\nOverall bit rate                 : 983 Kbps\n\nVideo\nID                               : 0\nFormat                           : MPEG-4 Visual\nFormat profile                   : AdvancedSimple@L5\nFormat settings, BVOP            : Yes\nFormat settings, QPel            : No\nFormat settings, GMC             : No warppoints\nFormat settings, Matrix          : Default (MPEG)\nCodec ID                         : XVID\nCodec ID/Hint                    : XviD\nDuration                         : 1h 36mn\nBit rate                         : 855 Kbps\nWidth                            : 624 pixels\nHeight                           : 352 pixels\nDisplay aspect ratio             : 16:9\nFrame rate                       : 23.976 fps\nResolution                       : 24 bits\nColorimetry                      : 4:2:0\nScan type                        : Progressive\nBits/(Pixel*Frame)               : 0.162\nStream size                      : 591 MiB (87%)\nWriting library                  : XviD 1.2.1 (UTC 2008-12-04)\n\nAudio\nID                               : 1\nFormat                           : MPEG Audio\nFormat version                   : Version 1\nFormat profile                   : Layer 3\nCodec ID                         : 55\nCodec ID/Hint                    : MP3\nDuration                         : 1h 36mn\nBit rate mode                    : Variable\nBit rate                         : 116 Kbps\nNominal bit rate                 : 128 Kbps\nChannel(s)                       : 2 channels\nSampling rate                    : 48.0 KHz\nResolution                       : 16 bits\nStream size                      : 79.9 MiB (12%)\nAlignment                        : Aligned on interleaves\nInterleave, duration             : 24 ms (0.58 video frame)\nInterleave, preload duration     : 159 ms\nWriting library                  : LAME3.99a\nEncoding settings                : -m j -V 4 -q 3 -lowpass 17 --abr 128\n[/code]\n\n\n\n\n","torrent":{"xt":"urn:btih:804c784c02a67bdd552688d7480d3f4409e6c4f6","amp;dn":"Up.2009.iTALiAN.LD.BDRip.XvlD-SiLENT%5Bsurvivalofmisa%5D","amp;tr":["udp%3A%2F%2Ftracker.openbittorrent.com%3A80","udp%3A%2F%2Fopen.demonii.com%3A1337","udp%3A%2F%2Ftracker.coppersurfer.tk%3A6969","udp%3A%2F%2Fexodus.desync.com%3A6969"],"infoHash":"804c784c02a67bdd552688d7480d3f4409e6c4f6","infoHashBuffer":{"type":"Buffer","data":[128,76,120,76,2,166,123,221,85,38,136,215,72,13,63,68,9,230,196,246]},"announce":[],"urlList":[]}}